# xmcd
#
# Track frame offsets: 
#        150
#        18448
#        36227
#        53007
#        71521
#        89067
#        109550
#        128452
#        132536
#        147700
#        167605
#        187757
#        207358
#
# Disc length: 3288 seconds
#
# Revision: 0
# Processed by: cddbd v1.4PL0 Copyright (c) Steve Scherf et al.
# Submitted via: ExactAudioCopy v0.90b4
#
DISCID=b70cd60d
DTITLE=Magali - Magali
DYEAR=2002
DGENRE=Pop
TTITLE0=Voy por mas
TTITLE1=Baby
TTITLE2=La niña
TTITLE3=Vivir la vida
TTITLE4=Llamame
TTITLE5=Amo tu forma de ser
TTITLE6=Agua de lluvia
TTITLE7=Outro
TTITLE8=Un cuento de eternidad
TTITLE9=Una y mil veces
TTITLE10=Cuestion de tiempo
TTITLE11=El Mago
TTITLE12=Este momento
EXTD=
EXTT0=
EXTT1=
EXTT2=
EXTT3=
EXTT4=
EXTT5=
EXTT6=
EXTT7=
EXTT8=
EXTT9=
EXTT10=
EXTT11=
EXTT12=
PLAYORDER=
